<svg xmlns="http://www.w3.org/2000/svg" xmlns:xlink="http://www.w3.org/1999/xlink" width="500" zoomAndPan="magnify" viewBox="0 0 375 374.999991" height="500" preserveAspectRatio="xMidYMid meet" version="1.0"><defs><g/><clipPath id="fb21433fce"><path d="M 135.335938 127 L 196 127 L 196 188.878906 L 135.335938 188.878906 Z M 135.335938 127 " clip-rule="nonzero"/></clipPath><clipPath id="b2a26ce749"><path d="M 179 98.128906 L 239.585938 98.128906 L 239.585938 188.878906 L 179 188.878906 Z M 179 98.128906 " clip-rule="nonzero"/></clipPath><clipPath id="5c2abadd9b"><path d="M 135.335938 182 L 186 182 L 186 188.878906 L 135.335938 188.878906 Z M 135.335938 182 " clip-rule="nonzero"/></clipPath><clipPath id="fb07b63e74"><path d="M 179 111 L 239.585938 111 L 239.585938 188.878906 L 179 188.878906 Z M 179 111 " clip-rule="nonzero"/></clipPath><clipPath id="d3a23c6f02"><path d="M 179 98.128906 L 188 98.128906 L 188 113 L 179 113 Z M 179 98.128906 " clip-rule="nonzero"/></clipPath></defs><g clip-path="url(#fb21433fce)"><path fill="#38b6ff" d="M 187.460938 127.5625 L 170.566406 127.5625 L 135.335938 188.828125 L 186.019531 188.828125 L 195.910156 171.632812 L 188.898438 159.445312 L 187.460938 156.941406 L 186.019531 159.445312 L 177.574219 174.136719 L 160.679688 174.136719 Z M 187.460938 127.5625 " fill-opacity="1" fill-rule="evenodd"/></g><g clip-path="url(#b2a26ce749)"><path fill="#83858c" d="M 239.585938 188.828125 L 187.460938 98.179688 L 179.015625 112.871094 L 182.902344 119.632812 L 187.460938 127.5625 L 192.097656 135.621094 L 214.242188 174.136719 L 218.800781 182.066406 L 222.691406 188.828125 Z M 239.585938 188.828125 " fill-opacity="1" fill-rule="evenodd"/></g><path fill="#2493d4" d="M 187.460938 127.5625 L 174.339844 134.519531 L 147 182.066406 L 160.679688 174.136719 Z M 187.460938 127.5625 " fill-opacity="1" fill-rule="evenodd"/><g clip-path="url(#5c2abadd9b)"><path fill="#2493d4" d="M 147 182.066406 L 135.335938 188.828125 L 185.507812 188.828125 L 181.855469 182.066406 Z M 147 182.066406 " fill-opacity="1" fill-rule="evenodd"/></g><path fill="#2493d4" d="M 177.574219 174.136719 L 181.855469 182.066406 L 186.246094 174.136719 L 187.976562 171.007812 L 187.460938 156.941406 Z M 177.574219 174.136719 " fill-opacity="1" fill-rule="evenodd"/><g clip-path="url(#fb07b63e74)"><path fill="#68696e" d="M 192.097656 135.621094 L 214.242188 174.136719 L 218.800781 182.066406 L 222.691406 188.828125 L 239.585938 188.828125 L 227.921875 182.066406 L 187.460938 111.703125 L 179.015625 112.871094 L 182.902344 119.632812 L 187.460938 127.5625 Z M 192.097656 135.621094 " fill-opacity="1" fill-rule="evenodd"/></g><g clip-path="url(#d3a23c6f02)"><path fill="#8b8d93" d="M 187.460938 111.703125 L 187.460938 98.179688 L 179.015625 112.871094 Z M 187.460938 111.703125 " fill-opacity="1" fill-rule="evenodd"/></g><g fill="#68696e" fill-opacity="1"><g transform="translate(110.237263, 233.199041)"><g><path d="M 4.78125 0.140625 C 3.757812 0.046875 2.566406 0 1.203125 0 L -0.203125 0 L 7.546875 -21.6875 C 7.890625 -22.65625 8.0625 -23.21875 8.0625 -23.375 C 8.0625 -23.539062 8.054688 -23.644531 8.046875 -23.6875 L 8.0625 -23.71875 C 8.832031 -23.675781 9.648438 -23.65625 10.515625 -23.65625 C 11.222656 -23.65625 12.078125 -23.671875 13.078125 -23.703125 L 13.09375 -23.65625 C 13.070312 -23.613281 13.0625 -23.550781 13.0625 -23.46875 C 13.0625 -23.238281 13.238281 -22.640625 13.59375 -21.671875 L 21.5 0.046875 C 21.257812 0.0351562 20.976562 0.03125 20.65625 0.03125 C 20.65625 0.03125 20.347656 0.0195312 19.734375 0 C 19.429688 0 19.164062 0 18.9375 0 L 16.171875 0 L 14.5 -5.125 L 6.453125 -5.125 Z M 13.109375 -9.390625 L 10.421875 -17.671875 L 7.8125 -9.390625 Z M 13.109375 -9.390625 "/></g></g></g><g fill="#68696e" fill-opacity="1"><g transform="translate(140.598908, 233.199041)"><g><path d="M 8.828125 0.4375 C 6.898438 0.4375 5.085938 0.285156 3.390625 -0.015625 L 3.390625 -23.828125 C 4.960938 -24.015625 6.78125 -24.109375 8.84375 -24.109375 C 10.914062 -24.109375 12.789062 -23.828125 14.46875 -23.265625 C 16.144531 -22.703125 17.550781 -21.898438 18.6875 -20.859375 C 20.957031 -18.765625 22.09375 -15.835938 22.09375 -12.078125 C 22.09375 -7.867188 20.828125 -4.671875 18.296875 -2.484375 C 16.015625 -0.535156 12.859375 0.4375 8.828125 0.4375 Z M 8.03125 -3.890625 C 8.800781 -3.753906 9.570312 -3.6875 10.34375 -3.6875 C 11.113281 -3.6875 11.941406 -3.835938 12.828125 -4.140625 C 13.710938 -4.441406 14.484375 -4.910156 15.140625 -5.546875 C 16.535156 -6.898438 17.234375 -8.867188 17.234375 -11.453125 C 17.234375 -15.703125 15.6875 -18.3125 12.59375 -19.28125 C 11.570312 -19.601562 10.394531 -19.765625 9.0625 -19.765625 L 8.578125 -19.765625 C 8.398438 -19.765625 8.21875 -19.757812 8.03125 -19.75 Z M 8.03125 -3.890625 "/></g></g></g><g fill="#68696e" fill-opacity="1"><g transform="translate(173.930642, 233.199041)"><g><path d="M 7.859375 0.109375 C 6.722656 0.0351562 5.375 0 3.8125 0 L 3.234375 0 L 3.234375 -23.75 C 3.972656 -23.6875 4.492188 -23.65625 4.796875 -23.65625 L 5.53125 -23.65625 C 6.46875 -23.65625 7.242188 -23.707031 7.859375 -23.8125 L 7.859375 -14.328125 L 16.21875 -14.328125 L 16.21875 -23.75 C 17.207031 -23.6875 18.164062 -23.65625 19.09375 -23.65625 C 20.03125 -23.65625 20.617188 -23.707031 20.859375 -23.8125 L 20.859375 0.109375 C 20.285156 0.0351562 19.15625 0 17.46875 0 L 16.21875 0 L 16.21875 -10.046875 L 7.859375 -10.046875 Z M 7.859375 0.109375 "/></g></g></g><g fill="#68696e" fill-opacity="1"><g transform="translate(207.262382, 233.199041)"><g><path d="M 5 -2.8125 C 3.914062 -3.84375 3.0625 -5.082031 2.4375 -6.53125 C 1.820312 -7.976562 1.515625 -9.5625 1.515625 -11.28125 C 1.515625 -13.007812 1.800781 -14.644531 2.375 -16.1875 C 2.957031 -17.726562 3.789062 -19.085938 4.875 -20.265625 C 5.957031 -21.441406 7.257812 -22.375 8.78125 -23.0625 C 10.3125 -23.757812 12.03125 -24.109375 13.9375 -24.109375 C 17.207031 -24.109375 19.960938 -23.078125 22.203125 -21.015625 C 24.597656 -18.804688 25.796875 -15.828125 25.796875 -12.078125 C 25.796875 -8.453125 24.5625 -5.4375 22.09375 -3.03125 C 20.570312 -1.539062 18.765625 -0.519531 16.671875 0.03125 C 15.640625 0.300781 14.429688 0.4375 13.046875 0.4375 C 11.671875 0.4375 10.253906 0.15625 8.796875 -0.40625 C 7.347656 -0.976562 6.082031 -1.78125 5 -2.8125 Z M 6.453125 -11.53125 C 6.453125 -10.425781 6.632812 -9.410156 7 -8.484375 C 7.375 -7.554688 7.890625 -6.765625 8.546875 -6.109375 C 9.929688 -4.703125 11.710938 -4 13.890625 -4 C 15.972656 -4 17.640625 -4.671875 18.890625 -6.015625 C 20.171875 -7.398438 20.8125 -9.289062 20.8125 -11.6875 C 20.8125 -13.9375 20.203125 -15.816406 18.984375 -17.328125 C 17.671875 -18.941406 15.867188 -19.75 13.578125 -19.75 C 11.359375 -19.75 9.597656 -18.929688 8.296875 -17.296875 C 7.066406 -15.765625 6.453125 -13.84375 6.453125 -11.53125 Z M 6.453125 -11.53125 "/></g></g></g><g fill="#68696e" fill-opacity="1"><g transform="translate(243.635361, 233.199041)"><g><path d="M 13.671875 -24.109375 C 15.878906 -24.109375 17.769531 -23.722656 19.34375 -22.953125 L 19.34375 -17.5 L 19.296875 -17.46875 C 18.640625 -18.488281 17.242188 -19.164062 15.109375 -19.5 C 14.472656 -19.601562 13.675781 -19.65625 12.71875 -19.65625 C 11.757812 -19.65625 10.816406 -19.472656 9.890625 -19.109375 C 8.960938 -18.753906 8.203125 -18.242188 7.609375 -17.578125 C 6.460938 -16.285156 5.890625 -14.441406 5.890625 -12.046875 C 5.890625 -9.253906 6.617188 -7.175781 8.078125 -5.8125 C 9.285156 -4.675781 10.882812 -4.109375 12.875 -4.109375 C 15.132812 -4.109375 16.960938 -4.585938 18.359375 -5.546875 C 18.867188 -5.890625 19.300781 -6.316406 19.65625 -6.828125 L 19.71875 -6.796875 L 19.71875 -1.8125 C 17.894531 -0.3125 15.453125 0.4375 12.390625 0.4375 C 8.765625 0.4375 5.925781 -0.707031 3.875 -3 C 1.90625 -5.195312 0.921875 -8.101562 0.921875 -11.71875 C 0.921875 -15.550781 2 -18.570312 4.15625 -20.78125 C 6.34375 -23 9.515625 -24.109375 13.671875 -24.109375 Z M 13.671875 -24.109375 "/></g></g></g><g fill="#38b6ff" fill-opacity="1"><g transform="translate(168.263093, 265.742003)"><g><path d="M 13.390625 -14.25 C 13.648438 -14.25 13.84375 -14.171875 13.96875 -14.015625 C 14.101562 -13.859375 14.171875 -13.65625 14.171875 -13.40625 C 14.171875 -13.15625 14.09375 -12.921875 13.9375 -12.703125 C 13.789062 -12.484375 13.597656 -12.300781 13.359375 -12.15625 C 12.742188 -11.769531 11.828125 -11.578125 10.609375 -11.578125 C 10.085938 -11.578125 9.492188 -11.617188 8.828125 -11.703125 L 6.25 -2.015625 C 6.132812 -1.660156 6.078125 -1.367188 6.078125 -1.140625 C 6.078125 -0.847656 6.1875 -0.644531 6.40625 -0.53125 C 6.625 -0.414062 7.003906 -0.351562 7.546875 -0.34375 L 7.484375 0 C 6.878906 -0.03125 6.007812 -0.046875 4.875 -0.046875 C 3.738281 -0.046875 2.894531 -0.03125 2.34375 0 L 2.40625 -0.34375 C 2.894531 -0.375 3.273438 -0.4375 3.546875 -0.53125 C 3.816406 -0.632812 4.023438 -0.796875 4.171875 -1.015625 C 4.328125 -1.242188 4.476562 -1.578125 4.625 -2.015625 L 7.25 -11.90625 C 6.3125 -12.039062 5.5625 -12.109375 5 -12.109375 C 3.988281 -12.109375 3.335938 -12.007812 3.046875 -11.8125 C 3.140625 -11.675781 3.210938 -11.515625 3.265625 -11.328125 C 3.328125 -11.148438 3.359375 -10.972656 3.359375 -10.796875 C 3.359375 -10.523438 3.28125 -10.285156 3.125 -10.078125 C 2.976562 -9.878906 2.769531 -9.78125 2.5 -9.78125 C 2.25 -9.78125 2.054688 -9.859375 1.921875 -10.015625 C 1.785156 -10.171875 1.71875 -10.382812 1.71875 -10.65625 C 1.71875 -11.257812 2.03125 -11.710938 2.65625 -12.015625 C 3.195312 -12.285156 3.972656 -12.421875 4.984375 -12.421875 C 5.453125 -12.421875 5.894531 -12.398438 6.3125 -12.359375 C 6.726562 -12.316406 7.257812 -12.253906 7.90625 -12.171875 C 8.507812 -12.085938 9.015625 -12.023438 9.421875 -11.984375 C 9.835938 -11.941406 10.269531 -11.921875 10.71875 -11.921875 C 11.25 -11.921875 11.6875 -11.953125 12.03125 -12.015625 C 12.382812 -12.078125 12.695312 -12.175781 12.96875 -12.3125 C 12.675781 -12.601562 12.53125 -12.925781 12.53125 -13.28125 C 12.53125 -13.539062 12.601562 -13.765625 12.75 -13.953125 C 12.894531 -14.148438 13.109375 -14.25 13.390625 -14.25 Z M 13.390625 -14.25 "/></g></g></g><g fill="#38b6ff" fill-opacity="1"><g transform="translate(180.627032, 265.742003)"><g><path d="M 7.25 -8.0625 C 7.25 -7.113281 6.71875 -6.285156 5.65625 -5.578125 C 4.601562 -4.867188 3.398438 -4.296875 2.046875 -3.859375 C 1.910156 -3.273438 1.84375 -2.707031 1.84375 -2.15625 C 1.84375 -1.039062 2.242188 -0.484375 3.046875 -0.484375 C 4.046875 -0.484375 4.941406 -1.066406 5.734375 -2.234375 L 6.015625 -2.09375 C 5.640625 -1.457031 5.132812 -0.90625 4.5 -0.4375 C 3.875 0.0195312 3.210938 0.25 2.515625 0.25 C 1.796875 0.25 1.226562 0.0390625 0.8125 -0.375 C 0.40625 -0.800781 0.203125 -1.414062 0.203125 -2.21875 C 0.203125 -3.101562 0.460938 -4.097656 0.984375 -5.203125 C 1.503906 -6.316406 2.203125 -7.257812 3.078125 -8.03125 C 3.960938 -8.8125 4.925781 -9.203125 5.96875 -9.203125 C 6.332031 -9.203125 6.632812 -9.101562 6.875 -8.90625 C 7.125 -8.707031 7.25 -8.425781 7.25 -8.0625 Z M 5.578125 -8.875 C 5.203125 -8.875 4.785156 -8.65625 4.328125 -8.21875 C 3.867188 -7.78125 3.4375 -7.203125 3.03125 -6.484375 C 2.632812 -5.765625 2.332031 -5 2.125 -4.1875 C 3.226562 -4.570312 4.019531 -4.941406 4.5 -5.296875 C 4.925781 -5.640625 5.257812 -6.050781 5.5 -6.53125 C 5.738281 -7.007812 5.859375 -7.53125 5.859375 -8.09375 C 5.859375 -8.40625 5.832031 -8.613281 5.78125 -8.71875 C 5.738281 -8.820312 5.671875 -8.875 5.578125 -8.875 Z M 5.578125 -8.875 "/></g></g></g><g fill="#38b6ff" fill-opacity="1"><g transform="translate(188.98032, 265.742003)"><g><path d="M 5.625 -8.859375 C 5.050781 -8.859375 4.472656 -8.539062 3.890625 -7.90625 C 3.316406 -7.28125 2.847656 -6.453125 2.484375 -5.421875 C 2.117188 -4.390625 1.9375 -3.300781 1.9375 -2.15625 C 1.9375 -1.59375 2.039062 -1.171875 2.25 -0.890625 C 2.46875 -0.617188 2.769531 -0.484375 3.15625 -0.484375 C 4.113281 -0.484375 4.984375 -1.066406 5.765625 -2.234375 L 6.125 -2.09375 C 5.75 -1.457031 5.242188 -0.90625 4.609375 -0.4375 C 3.972656 0.0195312 3.304688 0.25 2.609375 0.25 C 1.898438 0.25 1.335938 0.03125 0.921875 -0.40625 C 0.515625 -0.84375 0.3125 -1.476562 0.3125 -2.3125 C 0.3125 -3.257812 0.53125 -4.269531 0.96875 -5.34375 C 1.414062 -6.425781 2.039062 -7.335938 2.84375 -8.078125 C 3.644531 -8.828125 4.554688 -9.203125 5.578125 -9.203125 C 6.109375 -9.203125 6.554688 -9.066406 6.921875 -8.796875 C 7.285156 -8.535156 7.46875 -8.175781 7.46875 -7.71875 C 7.46875 -7.363281 7.347656 -7.039062 7.109375 -6.75 C 6.878906 -6.46875 6.582031 -6.328125 6.21875 -6.328125 C 5.988281 -6.328125 5.8125 -6.390625 5.6875 -6.515625 C 5.570312 -6.648438 5.515625 -6.816406 5.515625 -7.015625 C 5.515625 -7.335938 5.640625 -7.617188 5.890625 -7.859375 C 6.148438 -8.097656 6.457031 -8.25 6.8125 -8.3125 C 6.570312 -8.675781 6.175781 -8.859375 5.625 -8.859375 Z M 5.625 -8.859375 "/></g></g></g><g fill="#38b6ff" fill-opacity="1"><g transform="translate(197.38593, 265.742003)"><g><path d="M 8.46875 -2.828125 L 8.03125 -1.546875 C 7.613281 -0.347656 6.910156 0.25 5.921875 0.25 C 5.109375 0.25 4.703125 -0.113281 4.703125 -0.84375 C 4.703125 -1.1875 4.796875 -1.640625 4.984375 -2.203125 L 6.640625 -7.1875 C 6.753906 -7.507812 6.8125 -7.800781 6.8125 -8.0625 C 6.8125 -8.457031 6.628906 -8.65625 6.265625 -8.65625 C 5.828125 -8.65625 5.359375 -8.382812 4.859375 -7.84375 C 4.367188 -7.300781 3.875 -6.539062 3.375 -5.5625 C 2.882812 -4.582031 2.421875 -3.445312 1.984375 -2.15625 L 1.359375 0 L -0.15625 0 L 3.296875 -11.625 C 3.359375 -11.820312 3.390625 -11.984375 3.390625 -12.109375 C 3.390625 -12.335938 3.296875 -12.503906 3.109375 -12.609375 C 2.921875 -12.722656 2.609375 -12.78125 2.171875 -12.78125 L 2.28125 -13.140625 C 3.488281 -13.160156 4.535156 -13.398438 5.421875 -13.859375 L 2.890625 -5.21875 C 3.523438 -6.632812 4.15625 -7.648438 4.78125 -8.265625 C 5.40625 -8.890625 6.085938 -9.203125 6.828125 -9.203125 C 7.773438 -9.203125 8.25 -8.757812 8.25 -7.875 C 8.25 -7.507812 8.160156 -7.078125 7.984375 -6.578125 L 6.296875 -1.484375 C 6.203125 -1.203125 6.15625 -0.976562 6.15625 -0.8125 C 6.15625 -0.539062 6.296875 -0.40625 6.578125 -0.40625 C 6.804688 -0.40625 7.023438 -0.535156 7.234375 -0.796875 C 7.453125 -1.054688 7.679688 -1.515625 7.921875 -2.171875 L 8.140625 -2.828125 Z M 8.46875 -2.828125 "/></g></g></g></svg>